<mxfile host="app.diagrams.net" agent="Mozilla/5.0 (Windows NT 10.0; Win64; x64) AppleWebKit/537.36 (KHTML, like Gecko) Chrome/140.0.0.0 Safari/537.36 Edg/140.0.0.0" version="28.2.3">
  <diagram name="Sayfa -1" id="Cm79aH9O-XMWZeAd9uIf">
    <mxGraphModel dx="983" dy="550" grid="1" gridSize="10" guides="1" tooltips="1" connect="1" arrows="1" fold="1" page="1" pageScale="1" pageWidth="827" pageHeight="1169" math="0" shadow="0">
      <root>
        <mxCell id="0" />
        <mxCell id="1" parent="0" />
        <mxCell id="iGXpJcIq926H9lTF2Xoa-6" value="" style="edgeStyle=orthogonalEdgeStyle;rounded=0;orthogonalLoop=1;jettySize=auto;html=1;" edge="1" parent="1" source="iGXpJcIq926H9lTF2Xoa-1" target="iGXpJcIq926H9lTF2Xoa-5">
          <mxGeometry relative="1" as="geometry" />
        </mxCell>
        <mxCell id="iGXpJcIq926H9lTF2Xoa-1" value="Başla" style="ellipse;whiteSpace=wrap;html=1;" vertex="1" parent="1">
          <mxGeometry x="60" y="950" width="120" height="80" as="geometry" />
        </mxCell>
        <mxCell id="iGXpJcIq926H9lTF2Xoa-9" value="" style="edgeStyle=orthogonalEdgeStyle;rounded=0;orthogonalLoop=1;jettySize=auto;html=1;" edge="1" parent="1" source="iGXpJcIq926H9lTF2Xoa-2" target="iGXpJcIq926H9lTF2Xoa-8">
          <mxGeometry relative="1" as="geometry" />
        </mxCell>
        <mxCell id="iGXpJcIq926H9lTF2Xoa-2" value="toplam=0;" style="shape=parallelogram;perimeter=parallelogramPerimeter;whiteSpace=wrap;html=1;fixedSize=1;" vertex="1" parent="1">
          <mxGeometry x="60" y="1220" width="120" height="60" as="geometry" />
        </mxCell>
        <mxCell id="iGXpJcIq926H9lTF2Xoa-7" value="" style="edgeStyle=orthogonalEdgeStyle;rounded=0;orthogonalLoop=1;jettySize=auto;html=1;" edge="1" parent="1" source="iGXpJcIq926H9lTF2Xoa-5" target="iGXpJcIq926H9lTF2Xoa-2">
          <mxGeometry relative="1" as="geometry" />
        </mxCell>
        <mxCell id="iGXpJcIq926H9lTF2Xoa-5" value="i=0;" style="shape=parallelogram;perimeter=parallelogramPerimeter;whiteSpace=wrap;html=1;fixedSize=1;" vertex="1" parent="1">
          <mxGeometry x="60" y="1090" width="120" height="60" as="geometry" />
        </mxCell>
        <mxCell id="iGXpJcIq926H9lTF2Xoa-13" value="" style="edgeStyle=orthogonalEdgeStyle;rounded=0;orthogonalLoop=1;jettySize=auto;html=1;" edge="1" parent="1" source="iGXpJcIq926H9lTF2Xoa-8" target="iGXpJcIq926H9lTF2Xoa-12">
          <mxGeometry relative="1" as="geometry" />
        </mxCell>
        <mxCell id="iGXpJcIq926H9lTF2Xoa-25" value="" style="edgeStyle=orthogonalEdgeStyle;rounded=0;orthogonalLoop=1;jettySize=auto;html=1;" edge="1" parent="1" source="iGXpJcIq926H9lTF2Xoa-8" target="iGXpJcIq926H9lTF2Xoa-24">
          <mxGeometry relative="1" as="geometry" />
        </mxCell>
        <mxCell id="iGXpJcIq926H9lTF2Xoa-8" value="i&amp;lt;=10" style="rhombus;whiteSpace=wrap;html=1;" vertex="1" parent="1">
          <mxGeometry x="80" y="1360" width="80" height="80" as="geometry" />
        </mxCell>
        <mxCell id="iGXpJcIq926H9lTF2Xoa-16" value="" style="edgeStyle=orthogonalEdgeStyle;rounded=0;orthogonalLoop=1;jettySize=auto;html=1;" edge="1" parent="1" source="iGXpJcIq926H9lTF2Xoa-12" target="iGXpJcIq926H9lTF2Xoa-15">
          <mxGeometry relative="1" as="geometry" />
        </mxCell>
        <mxCell id="iGXpJcIq926H9lTF2Xoa-12" value="i=i+1;" style="rounded=0;whiteSpace=wrap;html=1;" vertex="1" parent="1">
          <mxGeometry x="236" y="1370" width="120" height="60" as="geometry" />
        </mxCell>
        <mxCell id="iGXpJcIq926H9lTF2Xoa-14" value="Evet" style="text;html=1;align=center;verticalAlign=middle;whiteSpace=wrap;rounded=0;" vertex="1" parent="1">
          <mxGeometry x="163" y="1370" width="60" height="30" as="geometry" />
        </mxCell>
        <mxCell id="iGXpJcIq926H9lTF2Xoa-15" value="toplam=toplam+i" style="rounded=0;whiteSpace=wrap;html=1;" vertex="1" parent="1">
          <mxGeometry x="436" y="1370" width="120" height="60" as="geometry" />
        </mxCell>
        <mxCell id="iGXpJcIq926H9lTF2Xoa-21" value="" style="endArrow=none;html=1;rounded=0;" edge="1" parent="1">
          <mxGeometry width="50" height="50" relative="1" as="geometry">
            <mxPoint x="500" y="1480" as="sourcePoint" />
            <mxPoint x="500" y="1430" as="targetPoint" />
          </mxGeometry>
        </mxCell>
        <mxCell id="iGXpJcIq926H9lTF2Xoa-22" value="" style="endArrow=classic;html=1;rounded=0;entryX=0.804;entryY=0.663;entryDx=0;entryDy=0;entryPerimeter=0;" edge="1" parent="1" target="iGXpJcIq926H9lTF2Xoa-8">
          <mxGeometry width="50" height="50" relative="1" as="geometry">
            <mxPoint x="500" y="1480" as="sourcePoint" />
            <mxPoint x="145" y="1420" as="targetPoint" />
            <Array as="points">
              <mxPoint x="145" y="1480" />
            </Array>
          </mxGeometry>
        </mxCell>
        <mxCell id="iGXpJcIq926H9lTF2Xoa-28" value="" style="edgeStyle=orthogonalEdgeStyle;rounded=0;orthogonalLoop=1;jettySize=auto;html=1;" edge="1" parent="1" source="iGXpJcIq926H9lTF2Xoa-24" target="iGXpJcIq926H9lTF2Xoa-27">
          <mxGeometry relative="1" as="geometry" />
        </mxCell>
        <mxCell id="iGXpJcIq926H9lTF2Xoa-24" value="toplamı ekrana yazdır." style="shape=document;whiteSpace=wrap;html=1;boundedLbl=1;" vertex="1" parent="1">
          <mxGeometry x="60" y="1520" width="120" height="80" as="geometry" />
        </mxCell>
        <mxCell id="iGXpJcIq926H9lTF2Xoa-26" value="Hayır" style="text;html=1;align=center;verticalAlign=middle;whiteSpace=wrap;rounded=0;" vertex="1" parent="1">
          <mxGeometry x="60" y="1455" width="60" height="30" as="geometry" />
        </mxCell>
        <mxCell id="iGXpJcIq926H9lTF2Xoa-27" value="Bitir" style="ellipse;whiteSpace=wrap;html=1;" vertex="1" parent="1">
          <mxGeometry x="55" y="1680" width="130" height="80" as="geometry" />
        </mxCell>
        <mxCell id="iGXpJcIq926H9lTF2Xoa-31" value="" style="edgeStyle=orthogonalEdgeStyle;rounded=0;orthogonalLoop=1;jettySize=auto;html=1;" edge="1" parent="1" source="iGXpJcIq926H9lTF2Xoa-29" target="iGXpJcIq926H9lTF2Xoa-30">
          <mxGeometry relative="1" as="geometry" />
        </mxCell>
        <mxCell id="iGXpJcIq926H9lTF2Xoa-29" value="Başla" style="ellipse;whiteSpace=wrap;html=1;" vertex="1" parent="1">
          <mxGeometry x="340" y="30" width="120" height="80" as="geometry" />
        </mxCell>
        <mxCell id="iGXpJcIq926H9lTF2Xoa-33" value="" style="edgeStyle=orthogonalEdgeStyle;rounded=0;orthogonalLoop=1;jettySize=auto;html=1;" edge="1" parent="1" source="iGXpJcIq926H9lTF2Xoa-30" target="iGXpJcIq926H9lTF2Xoa-32">
          <mxGeometry relative="1" as="geometry" />
        </mxCell>
        <mxCell id="iGXpJcIq926H9lTF2Xoa-30" value="sayi1 gir&lt;span style=&quot;color: rgba(0, 0, 0, 0); font-family: monospace; font-size: 0px; text-align: start; text-wrap-mode: nowrap;&quot;&gt;%3CmxGraphModel%3E%3Croot%3E%3CmxCell%20id%3D%220%22%2F%3E%3CmxCell%20id%3D%221%22%20parent%3D%220%22%2F%3E%3CmxCell%20id%3D%222%22%20value%3D%22Ba%C5%9Fla%22%20style%3D%22ellipse%3BwhiteSpace%3Dwrap%3Bhtml%3D1%3B%22%20vertex%3D%221%22%20parent%3D%221%22%3E%3CmxGeometry%20x%3D%2260%22%20y%3D%2250%22%20width%3D%22120%22%20height%3D%2280%22%20as%3D%22geometry%22%2F%3E%3C%2FmxCell%3E%3C%2Froot%3E%3C%2FmxGraphModel%3E&lt;/span&gt;" style="shape=parallelogram;perimeter=parallelogramPerimeter;whiteSpace=wrap;html=1;fixedSize=1;" vertex="1" parent="1">
          <mxGeometry x="340" y="150" width="120" height="60" as="geometry" />
        </mxCell>
        <mxCell id="iGXpJcIq926H9lTF2Xoa-37" value="" style="edgeStyle=orthogonalEdgeStyle;rounded=0;orthogonalLoop=1;jettySize=auto;html=1;" edge="1" parent="1" source="iGXpJcIq926H9lTF2Xoa-32" target="iGXpJcIq926H9lTF2Xoa-36">
          <mxGeometry relative="1" as="geometry" />
        </mxCell>
        <mxCell id="iGXpJcIq926H9lTF2Xoa-32" value="sayi2 gir" style="shape=parallelogram;perimeter=parallelogramPerimeter;whiteSpace=wrap;html=1;fixedSize=1;" vertex="1" parent="1">
          <mxGeometry x="340" y="250" width="120" height="60" as="geometry" />
        </mxCell>
        <mxCell id="iGXpJcIq926H9lTF2Xoa-39" value="" style="edgeStyle=orthogonalEdgeStyle;rounded=0;orthogonalLoop=1;jettySize=auto;html=1;" edge="1" parent="1" source="iGXpJcIq926H9lTF2Xoa-36" target="iGXpJcIq926H9lTF2Xoa-38">
          <mxGeometry relative="1" as="geometry" />
        </mxCell>
        <mxCell id="iGXpJcIq926H9lTF2Xoa-36" value="sonuc=0" style="shape=parallelogram;perimeter=parallelogramPerimeter;whiteSpace=wrap;html=1;fixedSize=1;" vertex="1" parent="1">
          <mxGeometry x="340" y="350" width="120" height="60" as="geometry" />
        </mxCell>
        <mxCell id="iGXpJcIq926H9lTF2Xoa-41" value="" style="edgeStyle=orthogonalEdgeStyle;rounded=0;orthogonalLoop=1;jettySize=auto;html=1;" edge="1" parent="1" source="iGXpJcIq926H9lTF2Xoa-38" target="iGXpJcIq926H9lTF2Xoa-40">
          <mxGeometry relative="1" as="geometry" />
        </mxCell>
        <mxCell id="iGXpJcIq926H9lTF2Xoa-38" value="sonuc=sayi1*sayi2" style="whiteSpace=wrap;html=1;" vertex="1" parent="1">
          <mxGeometry x="340" y="490" width="120" height="60" as="geometry" />
        </mxCell>
        <mxCell id="iGXpJcIq926H9lTF2Xoa-43" value="" style="edgeStyle=orthogonalEdgeStyle;rounded=0;orthogonalLoop=1;jettySize=auto;html=1;" edge="1" parent="1" source="iGXpJcIq926H9lTF2Xoa-40" target="iGXpJcIq926H9lTF2Xoa-42">
          <mxGeometry relative="1" as="geometry" />
        </mxCell>
        <mxCell id="iGXpJcIq926H9lTF2Xoa-40" value="sonucu ekrana&amp;nbsp;&lt;div&gt;yazdır.&lt;/div&gt;" style="shape=document;whiteSpace=wrap;html=1;boundedLbl=1;" vertex="1" parent="1">
          <mxGeometry x="340" y="620" width="120" height="80" as="geometry" />
        </mxCell>
        <mxCell id="iGXpJcIq926H9lTF2Xoa-42" value="Bitir" style="ellipse;whiteSpace=wrap;html=1;" vertex="1" parent="1">
          <mxGeometry x="340" y="780" width="120" height="80" as="geometry" />
        </mxCell>
      </root>
    </mxGraphModel>
  </diagram>
</mxfile>
